<?xml version="1.0" encoding="UTF-8" standalone="no"?>
<svg
   xmlns:dc="http://purl.org/dc/elements/1.1/"
   xmlns:cc="http://creativecommons.org/ns#"
   xmlns:rdf="http://www.w3.org/1999/02/22-rdf-syntax-ns#"
   xmlns:svg="http://www.w3.org/2000/svg"
   xmlns="http://www.w3.org/2000/svg"
   xmlns:sodipodi="http://sodipodi.sourceforge.net/DTD/sodipodi-0.dtd"
   xmlns:inkscape="http://www.inkscape.org/namespaces/inkscape"
   version="1.1"
   x="0px"
   y="0px"
   viewBox="0 0 48 48"
   enable-background="new 0 0 100 100"
   xml:space="preserve"
   id="svg78"
   sodipodi:docname="ExpressionTreeToolkit.svg"
   width="36pt"
   height="36pt"
   inkscape:version="1.0 (4035a4fb49, 2020-05-01)"><title
     id="title86">ExpressionTreeToolkit</title><metadata
     id="metadata84"><rdf:RDF><cc:Work
         rdf:about=""><dc:format>image/svg+xml</dc:format><dc:type
           rdf:resource="http://purl.org/dc/dcmitype/StillImage" /><dc:title>ExpressionTreeToolkit</dc:title><cc:license
           rdf:resource="" /></cc:Work></rdf:RDF></metadata><defs
     id="defs82" /><sodipodi:namedview
     units="pt"
     inkscape:document-rotation="0"
     pagecolor="#ffffff"
     bordercolor="#666666"
     borderopacity="1"
     objecttolerance="10"
     gridtolerance="10"
     guidetolerance="10"
     inkscape:pageopacity="0"
     inkscape:pageshadow="2"
     inkscape:window-width="2256"
     inkscape:window-height="1410"
     id="namedview80"
     showgrid="false"
     inkscape:zoom="5.88"
     inkscape:cx="1.5584354"
     inkscape:cy="56.38"
     inkscape:window-x="-11"
     inkscape:window-y="-11"
     inkscape:window-maximized="1"
     inkscape:current-layer="svg78" /><g
     transform="matrix(0.55833739,0,0,0.55929408,-3.9252446,-3.4228796)"
     id="g72"><path
       d="m 49.225,15.748 0.263,-0.239 c 1.289,-1.169 2.026,-2.836 2.026,-4.574 0,-1.738 -0.737,-3.406 -2.026,-4.574 L 49.225,6.12 48.961,6.36 c -1.288,1.168 -2.027,2.836 -2.027,4.574 0,1.738 0.739,3.405 2.027,4.574 z"
       id="path10" /><path
       d="m 33.92,22.571 0.354,0.041 0.076,-0.348 c 0.367,-1.699 0,-3.485 -1.01,-4.9 -1.011,-1.414 -2.579,-2.341 -4.307,-2.545 l -0.354,-0.042 -0.075,0.348 c -0.369,1.699 0,3.485 1.008,4.9 1.011,1.415 2.581,2.344 4.308,2.546 z"
       id="path12" /><path
       d="m 16.123,30.009 c 0.957,0.57 2.048,0.872 3.156,0.872 0.614,0 1.222,-0.092 1.811,-0.271 l 0.34,-0.105 -0.069,-0.347 C 21.014,28.452 19.96,26.965 18.466,26.075 16.98,25.19 15.151,24.971 13.499,25.474 l -0.341,0.104 0.071,0.349 c 0.346,1.705 1.402,3.192 2.894,4.082 z"
       id="path14" /><path
       d="m 11.226,40.664 c 0.595,0.133 1.202,0.18 1.806,0.135 v 0 c 1.112,-0.082 2.184,-0.467 3.101,-1.11 l 0.291,-0.206 -0.176,-0.31 C 15.389,37.661 13.924,36.576 12.227,36.195 10.534,35.815 8.734,36.176 7.32,37.173 l -0.29,0.204 0.175,0.31 c 0.858,1.511 2.324,2.596 4.021,2.977 z"
       id="path16" /><path
       d="m 17.939,51.463 -0.272,-0.229 c -1.334,-1.118 -3.08,-1.623 -4.807,-1.389 -1.723,0.233 -3.275,1.19 -4.26,2.625 l -0.201,0.294 0.273,0.228 c 1.177,0.988 2.67,1.502 4.201,1.442 0.201,-0.008 0.404,-0.025 0.604,-0.053 1.722,-0.234 3.274,-1.191 4.26,-2.625 z"
       id="path18" /><path
       d="m 30.294,59.989 c -1.488,0.897 -2.534,2.391 -2.872,4.097 l -0.069,0.351 0.342,0.102 c 0.953,0.285 1.971,0.337 2.943,0.149 v 0 c 0.713,-0.137 1.394,-0.397 2.021,-0.776 1.488,-0.896 2.536,-2.391 2.872,-4.097 l 0.07,-0.351 -0.342,-0.102 c -1.654,-0.494 -3.482,-0.265 -4.965,0.627 z"
       id="path20" /><path
       d="m 48.416,35.171 -0.285,-0.138 -0.163,0.271 c -1.105,1.826 -1.39,4.047 -0.78,6.092 0.609,2.044 2.063,3.746 3.987,4.671 l 0.285,0.137 0.163,-0.271 c 1.104,-1.825 1.39,-4.046 0.779,-6.09 -0.608,-2.046 -2.061,-3.748 -3.986,-4.672 z"
       id="path22" /><path
       d="m 50.962,20.5 -0.163,-0.264 -0.277,0.137 c -1.878,0.928 -3.286,2.611 -3.863,4.624 -0.576,2.012 -0.274,4.187 0.829,5.966 l 0.163,0.266 0.276,-0.139 c 1.879,-0.926 3.286,-2.61 3.863,-4.623 0.577,-2.012 0.274,-4.186 -0.828,-5.967 z"
       id="path24" /><path
       d="m 40.166,50.981 c 0.978,-0.078 1.934,-0.292 2.84,-0.639 l 0.347,-0.133 -0.109,-0.313 c -0.741,-2.111 -2.479,-3.843 -4.77,-4.747 -2.277,-0.902 -4.963,-0.903 -7.28,-0.018 l -0.346,0.132 0.109,0.312 c 0.741,2.113 2.479,3.845 4.769,4.749 1.384,0.55 2.92,0.777 4.44,0.657 z"
       id="path26" /><path
       d="m 27.188,56.739 c 0.121,-0.007 0.243,-0.015 0.366,-0.028 2.142,-0.212 4.106,-1.326 5.39,-3.056 l 0.213,-0.285 -0.265,-0.239 c -1.609,-1.455 -3.701,-2.152 -5.885,-1.938 -2.142,0.213 -4.106,1.326 -5.39,3.056 l -0.212,0.285 0.263,0.239 c 1.52,1.373 3.48,2.07 5.52,1.966 z"
       id="path28" /><path
       d="m 30.115,39.885 0.321,-0.151 -0.12,-0.336 c -0.728,-2.027 -2.284,-3.663 -4.272,-4.487 -1.527,-0.634 -3.181,-0.758 -4.78,-0.357 -0.484,0.121 -0.961,0.291 -1.413,0.506 l -0.322,0.15 0.119,0.335 c 0.728,2.026 2.284,3.663 4.271,4.489 1.529,0.634 3.182,0.756 4.781,0.357 0.486,-0.123 0.961,-0.293 1.415,-0.506 z"
       id="path30" /><path
       d="m 26.4,46.503 0.253,-0.237 -0.212,-0.274 c -1.283,-1.665 -3.218,-2.716 -5.31,-2.885 -1.606,-0.131 -3.18,0.25 -4.543,1.1 -0.414,0.258 -0.806,0.559 -1.162,0.892 l -0.252,0.238 0.211,0.274 c 1.281,1.663 3.217,2.717 5.311,2.887 1.606,0.131 3.177,-0.251 4.543,-1.101 0.413,-0.259 0.805,-0.56 1.161,-0.894 z"
       id="path32" /><path
       d="m 26.116,29.086 c 1.389,1.233 3.175,1.921 5.03,1.933 10e-4,0 10e-4,0 10e-4,0 0.287,0.003 0.581,-0.012 0.867,-0.043 l 0.354,-0.038 -0.004,-0.356 C 32.343,28.428 31.408,26.373 29.8,24.942 28.411,23.707 26.624,23.019 24.768,23.007 24.48,23.005 24.188,23.02 23.902,23.05 l -0.354,0.038 0.003,0.355 c 0.02,2.153 0.955,4.209 2.565,5.643 z"
       id="path34" /><path
       d="m 42.392,24.142 0.301,0.186 0.218,-0.273 c 1.32,-1.649 1.863,-3.771 1.49,-5.824 -0.373,-2.055 -1.632,-3.869 -3.452,-4.983 l -0.301,-0.184 -0.218,0.271 c -1.319,1.649 -1.863,3.771 -1.491,5.825 0.373,2.054 1.631,3.869 3.453,4.982 z"
       id="path36" /><path
       d="m 33.893,35.43 -0.317,0.037 0.008,0.268 c 0.062,1.801 1.034,3.498 2.671,4.656 1.58,1.115 3.591,1.635 5.664,1.462 v 0 c 0.096,-0.008 0.191,-0.018 0.286,-0.026 l 0.317,-0.038 -0.01,-0.267 C 42.453,39.72 41.48,38.023 39.843,36.867 38.189,35.698 36.048,35.188 33.893,35.43 Z"
       id="path38" /><path
       d="m 36.033,25.565 -0.298,-0.03 -0.046,0.244 c -0.316,1.659 0.225,3.41 1.483,4.804 1.214,1.344 2.943,2.231 4.876,2.5 v 0 c 0.087,0.013 0.176,0.023 0.266,0.032 l 0.297,0.033 0.047,-0.246 c 0.315,-1.658 -0.226,-3.409 -1.484,-4.804 -1.271,-1.404 -3.122,-2.31 -5.141,-2.533 z"
       id="path40" /><path
       d="m 66.107,22.571 -0.353,0.041 -0.075,-0.348 c -0.37,-1.699 0,-3.485 1.009,-4.9 1.011,-1.414 2.579,-2.341 4.306,-2.545 l 0.354,-0.042 0.075,0.348 c 0.369,1.699 0.001,3.485 -1.009,4.9 -1.011,1.415 -2.579,2.344 -4.307,2.546 z"
       id="path42" /><path
       d="m 83.905,30.009 c -0.956,0.57 -2.048,0.872 -3.157,0.872 -0.613,0 -1.222,-0.092 -1.811,-0.271 l -0.339,-0.105 0.07,-0.347 c 0.345,-1.706 1.4,-3.193 2.895,-4.083 1.484,-0.885 3.313,-1.104 4.966,-0.601 l 0.341,0.104 -0.071,0.349 c -0.345,1.705 -1.401,3.192 -2.894,4.082 z"
       id="path44" /><path
       d="m 88.803,40.664 c -0.595,0.133 -1.203,0.18 -1.805,0.135 v 0 c -1.113,-0.082 -2.185,-0.467 -3.103,-1.11 l -0.291,-0.206 0.177,-0.31 c 0.86,-1.512 2.325,-2.597 4.021,-2.978 1.692,-0.38 3.492,-0.019 4.906,0.978 l 0.292,0.204 -0.177,0.31 c -0.859,1.511 -2.323,2.596 -4.02,2.977 z"
       id="path46" /><path
       d="m 82.09,51.463 0.272,-0.229 c 1.333,-1.118 3.08,-1.623 4.807,-1.389 1.722,0.233 3.273,1.19 4.259,2.625 l 0.201,0.294 -0.272,0.228 c -1.179,0.988 -2.67,1.502 -4.202,1.442 -0.2,-0.008 -0.404,-0.025 -0.604,-0.053 -1.723,-0.234 -3.275,-1.191 -4.261,-2.625 z"
       id="path48" /><path
       d="m 69.735,59.989 c 1.487,0.897 2.534,2.391 2.87,4.097 l 0.069,0.351 -0.341,0.102 c -0.954,0.285 -1.972,0.337 -2.944,0.149 v 0 C 68.675,64.551 67.997,64.291 67.37,63.912 65.88,63.016 64.834,61.521 64.496,59.815 l -0.069,-0.351 0.342,-0.102 c 1.654,-0.494 3.483,-0.265 4.966,0.627 z"
       id="path50" /><path
       d="m 59.861,50.981 c -0.977,-0.078 -1.932,-0.292 -2.839,-0.639 l -0.347,-0.133 0.11,-0.313 c 0.741,-2.111 2.479,-3.843 4.769,-4.747 2.277,-0.902 4.964,-0.903 7.279,-0.018 l 0.346,0.132 -0.108,0.312 c -0.741,2.113 -2.479,3.845 -4.769,4.749 -1.383,0.55 -2.92,0.777 -4.441,0.657 z"
       id="path52" /><path
       d="m 72.84,56.739 c -0.121,-0.007 -0.244,-0.015 -0.366,-0.028 -2.142,-0.212 -4.107,-1.326 -5.39,-3.056 l -0.213,-0.285 0.264,-0.239 c 1.611,-1.455 3.703,-2.152 5.887,-1.938 2.142,0.213 4.105,1.326 5.39,3.056 l 0.212,0.285 -0.264,0.239 c -1.52,1.373 -3.479,2.07 -5.52,1.966 10e-4,0 10e-4,0 0,0 z"
       id="path54" /><path
       d="m 69.914,39.885 -0.321,-0.151 0.119,-0.336 c 0.729,-2.027 2.284,-3.663 4.271,-4.487 1.528,-0.634 3.182,-0.758 4.78,-0.357 0.486,0.121 0.961,0.291 1.415,0.506 l 0.321,0.15 -0.119,0.335 c -0.727,2.026 -2.283,3.663 -4.272,4.489 -1.527,0.634 -3.181,0.756 -4.779,0.357 -0.486,-0.123 -0.962,-0.293 -1.415,-0.506 z"
       id="path56" /><path
       d="m 73.627,46.503 -0.251,-0.237 0.211,-0.274 c 1.282,-1.665 3.218,-2.716 5.311,-2.885 1.606,-0.131 3.178,0.25 4.543,1.1 0.413,0.258 0.803,0.559 1.161,0.892 l 0.253,0.238 -0.212,0.274 c -1.281,1.663 -3.217,2.717 -5.31,2.887 -1.607,0.131 -3.178,-0.251 -4.544,-1.101 -0.413,-0.259 -0.805,-0.56 -1.162,-0.894 z"
       id="path58" /><path
       d="m 73.913,29.086 c -1.389,1.233 -3.176,1.921 -5.03,1.933 v 0 c -0.291,0.003 -0.582,-0.012 -0.869,-0.043 l -0.355,-0.038 0.004,-0.356 c 0.023,-2.154 0.957,-4.209 2.565,-5.64 1.389,-1.235 3.176,-1.923 5.032,-1.935 0.289,-0.002 0.58,0.013 0.867,0.043 l 0.354,0.038 -0.004,0.355 c -0.021,2.153 -0.956,4.209 -2.564,5.643 z"
       id="path60" /><path
       d="m 57.637,24.142 -0.301,0.186 -0.218,-0.273 c -1.32,-1.649 -1.863,-3.771 -1.49,-5.824 0.373,-2.055 1.632,-3.869 3.451,-4.983 l 0.302,-0.184 0.218,0.271 c 1.319,1.649 1.862,3.771 1.49,5.825 -0.372,2.054 -1.632,3.869 -3.452,4.982 z"
       id="path62" /><path
       d="m 66.136,35.43 0.317,0.037 -0.008,0.268 c -0.062,1.801 -1.034,3.498 -2.672,4.656 -1.579,1.115 -3.59,1.635 -5.662,1.462 v 0 c -0.098,-0.008 -0.192,-0.018 -0.288,-0.026 l -0.316,-0.038 0.009,-0.267 c 0.061,-1.802 1.034,-3.499 2.67,-4.655 1.652,-1.169 3.794,-1.679 5.95,-1.437 z"
       id="path64" /><path
       d="m 62.552,26.532 0.326,0.006 0.019,0.271 c 0.125,1.84 -0.691,3.666 -2.239,5.009 -1.493,1.297 -3.484,2.032 -5.613,2.068 v 0 c -0.096,10e-4 -0.195,10e-4 -0.293,0 l -0.326,-0.004 -0.02,-0.271 c -0.122,-1.839 0.695,-3.666 2.242,-5.01 1.561,-1.356 3.686,-2.092 5.904,-2.069 z"
       id="path66" /><path
       d="m 61.489,54.278 c -0.161,0.029 -0.344,0.088 -0.533,0.162 -1.658,0.536 -6.673,2.52 -10.941,7.353 -4.27,-4.833 -9.285,-6.816 -10.941,-7.353 -0.191,-0.074 -0.373,-0.133 -0.533,-0.162 -0.717,-0.265 -1.66,1.235 -0.761,1.854 3.097,2.041 6.109,4.54 7.049,9.396 0.574,2.971 0.478,6.974 0.399,10.786 -0.135,6.539 -1.294,12.909 -6.69,15.395 1.502,0.393 5.86,0.755 11.478,-3.057 5.615,3.812 9.975,3.449 11.478,3.057 -5.397,-2.485 -6.557,-8.855 -6.692,-15.395 -0.076,-3.812 -0.175,-7.815 0.4,-10.786 0.939,-4.855 3.951,-7.354 7.05,-9.396 0.897,-0.618 -0.046,-2.118 -0.763,-1.854 z"
       id="path68" /><circle
       cx="50.014999"
       cy="53.273998"
       r="3.122"
       id="circle70" /></g></svg>
